<svg width="40" height="40" viewBox="0 0 40 40" fill="none" xmlns="http://www.w3.org/2000/svg">
<path d="M19.9918 25.4327C23.1216 25.4327 25.6588 30.1386 25.6588 35.9436C25.6588 36.4192 25.6418 36.8873 25.6088 37.3462C25.5503 38.1591 26.1716 38.8874 26.9884 38.8874H36.6241C37.3588 38.8874 37.9544 38.2931 37.9544 37.56V33.2198C37.9544 32.3433 37.0994 31.6956 36.2242 31.6214C33.3193 31.3752 29.8838 28.896 27.4942 24.9961C24.2405 19.6857 24.1582 13.7523 27.3104 11.7435C29.3872 10.42 32.35 11.1303 35.0604 13.2879C35.5081 13.6443 36.0043 13.928 36.4458 13.7888C36.905 13.644 37.1994 13.2882 37.2088 12.6598C37.2133 12.3594 37.1592 12.0597 37.0519 11.779C34.6869 5.5886 27.9385 1.1211 19.9827 1.12109H19.9717C12.0159 1.1211 5.26756 5.5886 2.90248 11.779C2.79526 12.0597 2.74114 12.3594 2.74562 12.6598C2.755 13.2882 3.04938 13.644 3.50857 13.7888C3.95013 13.928 4.44633 13.6443 4.89405 13.2879C7.6044 11.1303 10.5672 10.42 12.6441 11.7435C15.7962 13.7523 15.7139 19.6857 12.4602 24.9961C10.0706 28.896 6.63516 31.3752 3.73026 31.6214C2.85499 31.6956 2 32.3433 2 33.2198V37.56C2 38.2931 2.59559 38.8874 3.33029 38.8874H12.966C13.7828 38.8874 14.4041 38.1591 14.3457 37.3462C14.3127 36.8873 14.2956 36.4192 14.2956 35.9436C14.2956 30.1386 16.8328 25.4327 19.9626 25.4327H19.9918Z" fill="black"/>
</svg>
